<svg width="50" height="34" viewBox="0 0 50 34" fill="none" xmlns="http://www.w3.org/2000/svg">
<path d="M12.0833 12.5C11.25 10 8.95833 8.33333 6.25 8.33333C2.70833 8.33333 0 11.0417 0 14.5833C0 18.125 2.70833 20.8333 6.25 20.8333C8.95833 20.8333 11.25 19.1667 12.0833 16.6667H14.5833V20.8333H18.75V16.6667H22.9167V12.5H12.0833ZM6.25 16.6667C5 16.6667 4.16667 15.8333 4.16667 14.5833C4.16667 13.3333 5 12.5 6.25 12.5C7.5 12.5 8.33333 13.3333 8.33333 14.5833C8.33333 15.8333 7.5 16.6667 6.25 16.6667ZM33.3333 0C28.75 0 25 3.75 25 8.33333C25 12.9167 28.75 16.6667 33.3333 16.6667C37.9167 16.6667 41.6667 12.9167 41.6667 8.33333C41.6667 3.75 37.9167 0 33.3333 0ZM33.3333 12.7083C30.8333 12.7083 28.9583 10.8333 28.9583 8.33333C28.9583 5.83333 30.8333 3.95833 33.3333 3.95833C35.8333 3.95833 37.7083 5.83333 37.7083 8.33333C37.7083 10.8333 35.8333 12.7083 33.3333 12.7083ZM33.3333 18.75C27.7083 18.75 16.6667 21.4583 16.6667 27.0833V33.3333H50V27.0833C50 21.4583 38.9583 18.75 33.3333 18.75ZM46.0417 29.375H20.625V27.0833C20.625 25.8333 27.0833 22.7083 33.3333 22.7083C39.5833 22.7083 46.0417 25.8333 46.0417 27.0833V29.375Z" fill="#CEBEBE"/>
</svg>
