<svg width="46" height="34" viewBox="0 0 46 34" fill="none" xmlns="http://www.w3.org/2000/svg">
<path d="M29.2727 0C27.0546 0 24.9272 0.881166 23.3588 2.44965C21.7903 4.01814 20.9091 6.14546 20.9091 8.36364C20.9091 10.5818 21.7903 12.7091 23.3588 14.2776C24.9272 15.8461 27.0546 16.7273 29.2727 16.7273C31.4909 16.7273 33.6182 15.8461 35.1867 14.2776C36.7552 12.7091 37.6364 10.5818 37.6364 8.36364C37.6364 6.14546 36.7552 4.01814 35.1867 2.44965C33.6182 0.881166 31.4909 0 29.2727 0ZM29.2727 3.97273C29.8494 3.97273 30.4203 4.0863 30.9531 4.30697C31.4858 4.52763 31.9698 4.85106 32.3776 5.2588C32.7853 5.66653 33.1087 6.15058 33.3294 6.68331C33.5501 7.21604 33.6637 7.78702 33.6637 8.36364C33.6637 8.94026 33.5501 9.51124 33.3294 10.044C33.1087 10.5767 32.7853 11.0607 32.3776 11.4685C31.9698 11.8762 31.4858 12.1996 30.9531 12.4203C30.4203 12.641 29.8494 12.7546 29.2727 12.7546C28.6961 12.7546 28.1251 12.641 27.5924 12.4203C27.0597 12.1996 26.5756 11.8762 26.1679 11.4685C25.7602 11.0607 25.4367 10.5767 25.2161 10.044C24.9954 9.51124 24.8818 8.94026 24.8818 8.36364C24.8818 7.1991 25.3444 6.08225 26.1679 5.2588C26.9914 4.43534 28.1082 3.97273 29.2727 3.97273ZM6.27273 6.27273V12.5455H0V16.7273H6.27273V23H10.4545V16.7273H16.7273V12.5455H10.4545V6.27273H6.27273ZM29.2727 18.8182C23.69 18.8182 12.5455 21.5991 12.5455 27.1818V33.4546H46V27.1818C46 21.5991 34.8555 18.8182 29.2727 18.8182ZM29.2727 22.7909C35.4827 22.7909 42.0273 25.8436 42.0273 27.1818V29.4818H16.5182V27.1818C16.5182 25.8436 23 22.7909 29.2727 22.7909Z" fill="#CEBEBE"/>
</svg>
