<svg width="36" height="40" viewBox="0 0 36 40" fill="none" xmlns="http://www.w3.org/2000/svg">
<path d="M0 6.26087L2.6713 3.65217L21.9339 22.9565L36 36.9809L33.3496 39.6522L27.0887 33.3913H2.6087V27.1304C2.6087 23.2487 8.05565 20.7026 13.2313 19.5339L0 6.26087ZM36 27.1304V31.68L32.0348 27.7148V27.1304C32.0348 26.5878 30.9913 25.7739 29.3217 25.0435L23.4783 19.1583C29.1339 20.0974 36 22.7687 36 27.1304ZM6.57391 27.1304V29.4261H23.1235L16.633 22.9565C11.353 23.5826 6.57391 25.9826 6.57391 27.1304ZM19.3043 0C21.5183 0 23.6416 0.8795 25.2072 2.44502C26.7727 4.01054 27.6522 6.13384 27.6522 8.34783C27.6522 12.4174 24.7304 15.8191 20.8696 16.5496L11.1026 6.78261C11.4684 4.87505 12.4872 3.15449 13.984 1.91668C15.4808 0.678875 17.362 0.00114765 19.3043 0ZM19.3043 4.17391C18.1974 4.17391 17.1357 4.61366 16.3529 5.39642C15.5702 6.17918 15.1304 7.24084 15.1304 8.34783C15.1304 9.45482 15.5702 10.5165 16.3529 11.2992C17.1357 12.082 18.1974 12.5217 19.3043 12.5217C20.4113 12.5217 21.473 12.082 22.2557 11.2992C23.0385 10.5165 23.4783 9.45482 23.4783 8.34783C23.4783 7.24084 23.0385 6.17918 22.2557 5.39642C21.473 4.61366 20.4113 4.17391 19.3043 4.17391Z" fill="#CEBEBE"/>
</svg>
